<svg width="15" height="25" viewBox="0 0 15 25" fill="none" xmlns="http://www.w3.org/2000/svg">
<path d="M7.50198 24.75C7.7701 24.7395 8.08 24.6292 8.27545 24.4453L14.6507 18.4453C15.0161 18.0388 15.1669 17.2591 14.7445 16.8047C14.3284 16.3571 13.5215 16.3704 13.1038 16.8163L8.627 21.0351V1.125C8.627 0.503701 8.12331 0 7.50198 0C6.88064 0 6.37694 0.503701 6.37694 1.125V21.0351L1.90014 16.8163C1.51558 16.4325 0.680268 16.3615 0.259443 16.8047C-0.161345 17.2478 -0.0269077 18.0555 0.35323 18.4453L6.7285 24.4453C6.94667 24.6507 7.20265 24.7507 7.50198 24.75Z" fill="black"/>
</svg>